<?xml version="1.0" encoding="utf-8"?>
<!-- Generator: Adobe Illustrator 24.2.3, SVG Export Plug-In . SVG Version: 6.00 Build 0)  -->
<svg width="182px" height="76px" version="1.1" id="Capa_1" xmlns="http://www.w3.org/2000/svg" xmlns:xlink="http://www.w3.org/1999/xlink" x="0px" y="0px"
	 viewBox="0 0 727.56 239.75" style="enable-background:new 0 0 727.56 239.75;" xml:space="preserve">
<style type="text/css">
	.st0{fill:#020203;}
	.st1{fill:#606060;}
	.st2{fill:#E52521;}
</style>
<g>
	<path class="st0" d="M139.56,49.6c0-19.23-14.52-33.21-41.12-33.21H43.19v121.15h32.52V91h11.54c12.87,0,17.03,3.8,17.03,16.46
		v3.42c0,13.9,0.59,21.64,2.36,26.65h32.05c-1.01-5.92-1.41-16.5-1.41-26.62v-3.73c0-13.94-3.76-24.19-16.36-29.03
		C131.31,74.02,139.56,65.87,139.56,49.6z M89.75,67.22H75.71V40.04h16.16c8.47,0,14.82,3.66,14.82,13.15
		C106.68,63.45,99.67,67.22,89.75,67.22z"/>
	<path class="st0" d="M322.78,38.81c13.43,0,16.97,7.54,18.61,13.72h32.76c-2.27-20.37-16.88-38.3-50.4-38.3
		c-38.08,0-57.83,28.01-57.83,64.06c0,32.65,14.69,61.51,49.84,61.51c14.75,0,26.33-3.55,32.71-14.42
		c0.29,3.48,1.19,8.83,1.95,12.15h23.55c0-2.87,0-36.17,0-69.11h-52.34v24.14h19.54v0.9c0,11.8-4.25,21.87-18.16,21.87
		c-16.28,0-22.46-15.51-22.46-37.49C300.55,54.79,306.46,38.81,322.78,38.81z"/>
	<path class="st0" d="M65.28,205.03c0-5.44-1.12-8.62-4.72-9.9c2.35-0.8,5.2-3.28,5.2-9.08c0-6.33-3.42-10.03-9.94-10.03H45.69
		v38.84h4.24v-17.88h4.72c5.25,0,6.37,2.65,6.37,8.18v1.32c0,3.15,0.04,6.61,0.58,8.38h4.23c-0.43-2.1-0.55-4.67-0.55-8.28V205.03z
		 M54.9,193.36h-4.96v-13.71h5.38c4.3,0,6.1,2.62,6.1,6.53C61.41,190.69,59.62,193.36,54.9,193.36z"/>
	<path class="st0" d="M80.57,185.39c-6.81,0-9.96,5.79-9.96,14.97c0,7.22,1.19,15.04,9.73,15.04c8.53,0,9.35-8.05,9.43-8.8h-4.1
		c-0.15,0.88-0.74,5.19-5.28,5.19c-4.6,0-5.57-4.96-5.57-10.64h15.11c0.06-0.72,0.08-1.69,0.08-2.24
		C89.99,191.67,88.19,185.39,80.57,185.39z M74.89,197.86c0.07-1.99,0.34-8.89,5.64-8.89c4.23,0,5.29,3.9,5.29,8.89H74.89z"/>
	<path class="st0" d="M106.36,185.39c-3.86,0-5.88,1.87-6.91,4.38c0-1.44-0.08-3.36-0.16-3.9h-4.05c0.06,1.81,0.06,4.5,0.06,8.47
		v31.19h4.18V211.9c0.82,1.84,2.54,3.5,6.03,3.5c5.68,0,9.31-5,9.31-15.44C114.83,190.26,111.85,185.39,106.36,185.39z
		 M104.81,211.69c-4.82,0-5.47-4.58-5.47-11.47c0-6.84,1.24-11.13,5.73-11.13c3.8,0,5.48,3.77,5.48,11.06
		C110.55,207.26,108.61,211.69,104.81,211.69z"/>
	<path class="st0" d="M137.02,193.47c0-5.35-2.69-8.08-8.33-8.08c-6.77,0-8.76,4.27-8.87,8.41h4.04c0.17-1.94,0.44-4.99,4.69-4.99
		c3.93,0,4.36,2.86,4.36,5.13v3.86c-0.85-0.09-1.67-0.09-3.03-0.09c-7.6,0-11.19,3.97-11.19,9.28c0,4.03,2.01,8.38,7.58,8.38
		c3.6,0,5.79-1.45,6.85-3.81c0,1.1,0.13,2.65,0.29,3.3h3.83c-0.08-0.91-0.23-3.31-0.23-5.12V193.47z M133.01,202.71
		c0,6.11-1.38,9.1-5.62,9.1c-3.1,0-4.51-2.46-4.51-5.13c0-3.23,2.11-5.7,7.26-5.7c1.35,0,2.15,0.04,2.87,0.15V202.71z"/>
	<rect x="143.97" y="185.87" class="st0" width="4.18" height="29"/>
	<rect x="143.99" y="174.15" class="st0" width="4.18" height="6"/>
	<path class="st0" d="M159.17,191.04c0-3.07-0.08-4.42-0.13-5.17h-4.03c0.06,2.08,0.06,5.26,0.06,9.88v19.12h4.18v-16.2
		c0-5.33,2.6-8.46,7.59-8.62v-4.62C163.2,185.46,160.4,187.54,159.17,191.04z"/>
	<path class="st0" d="M192.2,176.02h-10.01v38.84h4.26v-16.79h5.13c7.14,0,10.93-4.33,10.93-11.24
		C202.51,179.85,198.29,176.02,192.2,176.02z M191.12,194.47h-4.68v-14.82h5.17c4.32,0,6.56,2.86,6.56,7.15
		C198.17,192,195.78,194.47,191.12,194.47z"/>
	<path class="st0" d="M211.03,191.04c0-3.07-0.08-4.42-0.13-5.17h-4.03c0.06,2.08,0.06,5.26,0.06,9.88v19.12h4.18v-16.2
		c0-5.33,2.6-8.46,7.59-8.62v-4.62C215.06,185.46,212.27,187.54,211.03,191.04z"/>
	<path class="st0" d="M230.9,185.39c-6.81,0-9.96,5.79-9.96,14.97c0,7.22,1.19,15.04,9.73,15.04c8.53,0,9.35-8.05,9.43-8.8H236
		c-0.15,0.88-0.74,5.19-5.28,5.19c-4.6,0-5.57-4.96-5.57-10.64h15.11c0.06-0.72,0.08-1.69,0.08-2.24
		C240.33,191.67,238.52,185.39,230.9,185.39z M225.22,197.86c0.07-1.99,0.34-8.89,5.64-8.89c4.23,0,5.29,3.9,5.29,8.89H225.22z"/>
	<path class="st0" d="M253.98,197.8c-4.02-1.55-5.03-2.69-5.03-5.01c0-2.3,1.25-3.99,3.99-3.99c4.01,0,4.32,3.45,4.4,4.83h4.1
		c-0.04-3.85-1.89-8.25-8.36-8.25c-5.92,0-8.3,3.78-8.3,7.66c0,4.05,1.75,6.2,7.74,8.49c3.8,1.48,5.34,2.86,5.34,5.86
		c0,2.66-1.53,4.57-4.69,4.57c-3.32,0-4.95-2.34-5.13-5.44h-4.16c0.15,5.26,3.09,8.87,9.08,8.87c5.81,0,9.12-3.12,9.12-8.4
		C262.06,202.01,259.57,199.96,253.98,197.8z"/>
	<path class="st0" d="M275.78,185.39c-6.81,0-9.96,5.79-9.96,14.97c0,7.22,1.19,15.04,9.73,15.04c8.53,0,9.35-8.05,9.43-8.8h-4.1
		c-0.15,0.88-0.74,5.19-5.28,5.19c-4.6,0-5.57-4.96-5.57-10.64h15.11c0.06-0.72,0.08-1.69,0.08-2.24
		C285.21,191.67,283.41,185.39,275.78,185.39z M270.11,197.86c0.07-1.99,0.34-8.89,5.64-8.89c4.23,0,5.29,3.9,5.29,8.89H270.11z"/>
	<path class="st0" d="M294.63,191.04c0-3.07-0.08-4.42-0.13-5.17h-4.03c0.06,2.08,0.06,5.26,0.06,9.88v19.12h4.18v-16.2
		c0-5.33,2.6-8.46,7.59-8.62v-4.62C298.66,185.46,295.87,187.54,294.63,191.04z"/>
	<path class="st0" d="M315.35,210.16h-0.06c-0.58-3.56-3.46-14.89-5.84-24.29h-4.44l7.87,29h4.53l8.29-29h-4.22
		C320.09,191.78,315.74,206.96,315.35,210.16z"/>
	<path class="st0" d="M345.68,193.47c0-5.35-2.69-8.08-8.33-8.08c-6.77,0-8.76,4.27-8.87,8.41h4.04c0.17-1.94,0.44-4.99,4.69-4.99
		c3.93,0,4.36,2.86,4.36,5.13v3.86c-0.85-0.09-1.67-0.09-3.03-0.09c-7.6,0-11.19,3.97-11.19,9.28c0,4.03,2.01,8.38,7.58,8.38
		c3.6,0,5.79-1.45,6.85-3.81c0,1.1,0.13,2.65,0.29,3.3h3.83c-0.08-0.91-0.23-3.31-0.23-5.12V193.47z M341.67,202.71
		c0,6.11-1.38,9.1-5.62,9.1c-3.1,0-4.51-2.46-4.51-5.13c0-3.23,2.11-5.7,7.26-5.7c1.35,0,2.15,0.04,2.87,0.15V202.71z"/>
	<path class="st0" d="M357.28,178.14h-4.15v7.73h-4.09v3.59h4.09v19.86c0,4.57,1.98,5.95,5.39,5.95c0.98,0,2.44-0.09,3.42-0.48
		v-3.22c-0.53,0.11-1.36,0.15-2.04,0.15c-2.19,0-2.62-1.25-2.62-3.24v-19.03h5.05v-3.59h-5.05V178.14z"/>
	<rect x="366.47" y="185.87" class="st0" width="4.18" height="29"/>
	<rect x="366.49" y="174.15" class="st0" width="4.18" height="6"/>
	<path class="st0" d="M386.28,185.39c-6.22,0-10.15,4.67-10.15,14.73c0,10.29,3.26,15.28,9.97,15.28c6.55,0,9.98-5.17,9.98-15.37
		C396.08,190.3,392.62,185.39,386.28,185.39z M386.15,211.77c-3.77,0-5.74-3.74-5.74-11.63c0-7.85,2.06-11.1,5.72-11.1
		c3.84,0,5.68,3.65,5.68,11.07C391.81,207.97,389.91,211.77,386.15,211.77z"/>
	<path class="st0" d="M412.53,185.37c-3.91,0-5.9,2.04-6.87,4.3c0-1.95-0.08-3.1-0.16-3.8h-4.05c0.02,1.34,0.06,3.03,0.06,8.97
		v20.03h4.22v-17.25c0-5.95,1.66-8.52,5.57-8.52c3.3,0,4.46,2.4,4.46,5.94v19.83h4.22V194.2
		C419.99,187.76,416.73,185.37,412.53,185.37z"/>
	<path class="st0" d="M448.3,179.19c5.47,0,5.78,5.48,5.89,6.86h4.26c-0.11-2.32-0.72-10.59-10.03-10.59c-7.89,0-12,6.65-12,20.02
		c0,11.28,2.2,19.95,10.61,19.95c4.56,0,6.5-2.07,7.77-4.77c0.02,1.94,0.13,3.11,0.27,4.2h3.35v-21.29h-10.95v3.75h6.74v1.9
		c0,8.14-1.2,12.52-6.43,12.52c-5.47,0-6.92-6.61-6.92-16.32C440.88,185.65,442.81,179.19,448.3,179.19z"/>
	<path class="st0" d="M468.98,191.04c0-3.07-0.08-4.42-0.13-5.17h-4.03c0.06,2.08,0.06,5.26,0.06,9.88v19.12h4.18v-16.2
		c0-5.33,2.6-8.46,7.59-8.62v-4.62C473.01,185.46,470.21,187.54,468.98,191.04z"/>
	<path class="st0" d="M489.04,185.39c-6.22,0-10.15,4.67-10.15,14.73c0,10.29,3.26,15.28,9.97,15.28c6.55,0,9.98-5.17,9.98-15.37
		C498.84,190.3,495.38,185.39,489.04,185.39z M488.91,211.77c-3.77,0-5.74-3.74-5.74-11.63c0-7.85,2.06-11.1,5.72-11.1
		c3.84,0,5.68,3.65,5.68,11.07C494.56,207.97,492.67,211.77,488.91,211.77z"/>
	<path class="st0" d="M522.51,185.87h-4.22v17.6c0,6.27-2.29,8.23-5.49,8.23c-3.32,0-4.35-2.26-4.35-5.97v-19.86h-4.22v20.85
		c0,7.28,3.88,8.66,7.25,8.66c3.42,0,5.85-1.51,6.89-4.38c0.02,1.87,0.08,3.02,0.21,3.86h3.99c-0.06-1.4-0.06-4.29-0.06-7.94V185.87
		z"/>
	<path class="st0" d="M540.09,185.39c-3.86,0-5.88,1.87-6.91,4.38c0-1.44-0.08-3.36-0.16-3.9h-4.05c0.06,1.81,0.06,4.5,0.06,8.47
		v31.19h4.18V211.9c0.82,1.84,2.54,3.5,6.03,3.5c5.68,0,9.31-5,9.31-15.44C548.56,190.26,545.58,185.39,540.09,185.39z
		 M538.54,211.69c-4.82,0-5.47-4.58-5.47-11.47c0-6.84,1.24-11.13,5.73-11.13c3.8,0,5.48,3.77,5.48,11.06
		C544.28,207.26,542.34,211.69,538.54,211.69z"/>
	<rect x="403.52" y="46.28" class="st1" width="43.76" height="7.28"/>
	<rect x="571.94" y="173.79" class="st0" width="69.15" height="12"/>
	<path class="st0" d="M668.7,43.92h-57.13v-3.68c-0.97-0.21-1.97-0.4-3-0.57v4.26h-3v-4.68c-0.98-0.11-1.98-0.21-3-0.29v4.96h-3
		v-5.13c-0.92-0.03-1.85-0.05-2.79-0.05c-0.07,0-0.15,0-0.22,0v5.18h-3v-5.18h-3v5.18h-3v-5.18h-0.01h-3h-83.67V28.7h-11.46v10.04
		h-38.73c-1.89,0-3.43,1.53-3.43,3.43v4.11v7.28v4.11c0,1.89,1.53,3.43,3.43,3.43h38.73v10.04h11.46V61.1h83.67h3h0.01v-5.18h3v5.18
		h3v-5.18h3v5.18c0.07,0,0.15,0,0.22,0c0.94,0,1.87-0.02,2.79-0.05v-5.13h3v4.96c1.02-0.08,2.02-0.17,3-0.29v-4.68h3v4.26
		c1.03-0.17,2.04-0.36,3-0.57v-3.68h57.13c2.02,0,3.67,1.65,3.67,3.67v110.53c0,2.02-1.65,3.67-3.67,3.67h-15.61v12h15.61
		c8.64,0,15.67-7.03,15.67-15.67V59.59C684.37,50.95,677.34,43.92,668.7,43.92z"/>
	<rect x="403.52" y="105.84" class="st1" width="43.76" height="7.28"/>
	<path class="st2" d="M653.09,119.15c0-8.64-7.03-15.67-15.67-15.67h-25.85V99.8c-0.97-0.21-1.97-0.4-3-0.57v4.26h-3V98.8
		c-0.98-0.11-1.98-0.21-3-0.29v4.96h-3v-5.13c-0.92-0.03-1.85-0.05-2.79-0.05c-0.07,0-0.15,0-0.22,0v5.18h-3V98.3h-3v5.18h-3V98.3
		h-0.01h-3h-83.67V88.26h-11.46V98.3h-38.73c-1.89,0-3.43,1.53-3.43,3.43v4.11v7.28v4.11c0,1.89,1.53,3.43,3.43,3.43h38.73v10.04
		h11.46v-10.04h83.67h3h0.01v-5.18h3v5.18h3v-5.18h3v5.18c0.07,0,0.15,0,0.22,0c0.94,0,1.87-0.02,2.79-0.05v-5.13h3v4.96
		c1.02-0.08,2.02-0.17,3-0.29v-4.68h3v4.26c1.03-0.17,2.04-0.36,3-0.57v-3.68h25.85c2.02,0,3.67,1.65,3.67,3.67v54.63v12v10
		c0,2.02-1.65,3.67-3.67,3.67h-66.1v12h66.1c8.64,0,15.67-7.03,15.67-15.67v-10v-12V119.15z"/>
	<path class="st0" d="M208.51,16.39h-50.2v121.15h32.92V93.86h15.34c27.59,0,46.89-13.27,46.89-39.43
		C253.47,29.06,232.83,16.39,208.51,16.39z M203.25,69.89h-12.01v-29.6h12.46c10.14,0,16.3,4.41,16.3,14.24
		C220.01,65.11,214.26,69.89,203.25,69.89z"/>
</g>
</svg>
